<?xml version="1.0" encoding="UTF-8" standalone="no"?>
<svg
   viewBox="0 0 512 512"
   version="1.1"
   id="svg4"
   sodipodi:docname="arrow-circle-up.svg"
   inkscape:version="1.1 (c68e22c387, 2021-05-23)"
   xmlns:inkscape="http://www.inkscape.org/namespaces/inkscape"
   xmlns:sodipodi="http://sodipodi.sourceforge.net/DTD/sodipodi-0.dtd"
   xmlns="http://www.w3.org/2000/svg"
   xmlns:svg="http://www.w3.org/2000/svg">
  <defs
     id="defs8" />
  <sodipodi:namedview
     id="namedview6"
     pagecolor="#ffffff"
     bordercolor="#666666"
     borderopacity="1.0"
     inkscape:pageshadow="2"
     inkscape:pageopacity="0.0"
     inkscape:pagecheckerboard="0"
     showgrid="false"
     inkscape:zoom="1.703125"
     inkscape:cx="255.70642"
     inkscape:cy="256.29358"
     inkscape:window-width="1920"
     inkscape:window-height="1057"
     inkscape:window-x="-8"
     inkscape:window-y="-8"
     inkscape:window-maximized="1"
     inkscape:current-layer="svg4" />
  <!-- Font Awesome Free 5.15.4 by @fontawesome - https://fontawesome.com License - https://fontawesome.com/license/free (Icons: CC BY 4.0, Fonts: SIL OFL 1.1, Code: MIT License) -->
  <path
     d="m 13.284404,257.76147 c 0,-137 111.000006,-248.0000021 248.000006,-248.0000021 137,0 248,111.0000021 248,248.0000021 0,137 -111,248 -248,248 -137,0 -248.000006,-111 -248.000006,-248 z m 143.600006,28.9 72.4,-75.5 v 182.6 c 0,13.3 10.7,24 24,24 h 16 c 13.3,0 24,-10.7 24,-24 v -182.6 l 72.4,75.5 c 9.3,9.7 24.8,9.9 34.3,0.4 l 10.9,-11 c 9.4,-9.4 9.4,-24.6 0,-33.9 l -132.6,-132.7 c -9.4,-9.4 -24.6,-9.4 -33.9,0 l -132.80001,132.7 c -9.4,9.4 -9.4,24.6 0,33.9 l 10.90001,11 c 9.6,9.5 25.1,9.3 34.4,-0.4 z"
     id="path2"
     style="fill:#ffffff" />
</svg>
